HIERARCHY
ROOT Pelvis
{
	OFFSET -0.217368 -24.078917 2.858379
	CHANNELS 6 Xposition Yposition Zposition Zrotation Yrotation Xrotation 
	JOINT Left_hip
	{
		OFFSET 5.858135 -8.228005 -1.766408
		CHANNELS 3 Zrotation Yrotation Xrotation
		JOINT Left_knee
		{
			OFFSET 4.345143 -38.646942 0.803700
			CHANNELS 3 Zrotation Yrotation Xrotation
			JOINT Left_ankle
			{
				OFFSET -1.479033 -42.687447 -3.742800
				CHANNELS 3 Zrotation Yrotation Xrotation
				JOINT Left_foot
				{
					OFFSET 4.105436 -6.028605 12.204244
					CHANNELS 3 Zrotation Yrotation Xrotation
					End Site
					{
						OFFSET 0.000000 0.000000 0.000000
					}
				}
			}
		}
	}
	JOINT Right_hip
	{
		OFFSET -6.030973 -9.051328 -1.354253
		CHANNELS 3 Zrotation Yrotation Xrotation
		JOINT Right_knee
		{
			OFFSET -4.325663 -38.368790 -0.484304
			CHANNELS 3 Zrotation Yrotation Xrotation
			JOINT Right_ankle
			{
				OFFSET 1.905555 -42.004566 -3.456167
				CHANNELS 3 Zrotation Yrotation Xrotation
				JOINT Right_foot
				{
					OFFSET -3.483987 -6.210554 13.032330
					CHANNELS 3 Zrotation Yrotation Xrotation
					End Site
					{
						OFFSET 0.000000 0.000000 0.000000
					}
				}
			}
		}
	}
	JOINT Spine1
	{
		OFFSET 0.443945 12.440353 -3.838522
		CHANNELS 3 Zrotation Yrotation Xrotation
		JOINT Spine2
		{
			OFFSET 0.448844 13.795640 2.682033
			CHANNELS 3 Zrotation Yrotation Xrotation
			JOINT Spine3
			{
				OFFSET -0.226460 5.603239 0.285504
				CHANNELS 3 Zrotation Yrotation Xrotation
				JOINT Neck
				{
					OFFSET -1.339018 21.163553 -3.346758
					CHANNELS 3 Zrotation Yrotation Xrotation
					JOINT Head
					{
						OFFSET 1.011321 8.893734 5.040987
						CHANNELS 3 Zrotation Yrotation Xrotation
						End Site
						{
							OFFSET 0.000000 0.000000 0.000000
						}
					}
				}
				JOINT Left_collar
				{
					OFFSET 7.170247 11.399971 -1.889817
					CHANNELS 3 Zrotation Yrotation Xrotation
					JOINT Left_shoulder
					{
						OFFSET 12.292140 4.520507 -1.904600
						CHANNELS 3 Zrotation Yrotation Xrotation
						JOINT Left_elbow
						{
							OFFSET 25.533188 -1.564902 -2.294648
							CHANNELS 3 Zrotation Yrotation Xrotation
							JOINT Left_wrist
							{
								OFFSET 26.570929 1.269810 -0.737473
								CHANNELS 3 Zrotation Yrotation Xrotation
								JOINT Left_palm
								{
									OFFSET 8.669054 -1.063602 -1.559429
									CHANNELS 3 Zrotation Yrotation Xrotation
									End Site
									{
										OFFSET 0.000000 0.000000 0.000000
									}
								}
							}
						}
					}
				}
				JOINT Right_collar
				{
					OFFSET -8.295364 11.247234 -2.370738
					CHANNELS 3 Zrotation Yrotation Xrotation
					JOINT Right_shoulder
					{
						OFFSET -11.322830 4.685326 -0.847207
						CHANNELS 3 Zrotation Yrotation Xrotation
						JOINT Right_elbow
						{
							OFFSET -26.012751 -1.436928 -3.126872
							CHANNELS 3 Zrotation Yrotation Xrotation
							JOINT Right_wrist
							{
								OFFSET -26.910841 0.679372 -0.602677
								CHANNELS 3 Zrotation Yrotation Xrotation
								JOINT Right_palm
								{
									OFFSET -8.875370 -0.865157 -1.010708
									CHANNELS 3 Zrotation Yrotation Xrotation
									End Site
									{
										OFFSET 0.000000 0.000000 0.000000
									}
								}
							}
						}
					}
				}
			}
		}
	}
}
MOTION
Frames: 14
Frame Time: 0.016667
-0.217368 71.698616 2.858379 0.889880 -2.710443 -1.910192 2.863101 0.116964 2.281125 -2.188102 0.247272 -0.482116 1.815380 7.562587 11.822153 0.000000 0.000000 0.000000 -7.728799 0.105196 2.278893 0.179484 0.148931 4.392198 -2.936574 -10.554228 11.994182 0.000000 0.000000 0.000000 1.161631 -0.128415 2.339196 1.610830 0.102505 -20.638011 3.282198 3.313364 23.428505 -7.680420 5.793277 -8.901888 0.000000 0.000000 0.000000 10.027334 -3.120521 1.709679 3.948498 -22.430982 -1.519560 41.578842 -11.866825 -3.829801 0.000000 0.000000 0.000000 0.000000 0.000000 0.000000 16.978956 0.122824 -1.644731 50.486784 -2.706831 -5.539562 12.063445 30.815370 4.072225 0.000000 0.000000 0.000000 0.000000 0.000000 0.000000 
-0.159602 71.696182 2.833465 1.256199 -2.211232 -1.238997 2.491259 0.058057 1.263672 -3.616813 0.398241 -0.639788 2.529797 8.465280 10.759400 0.000000 0.000000 0.000000 -8.266577 0.151814 1.428170 -0.529355 0.313716 5.771671 -2.879272 -10.344284 11.507079 0.000000 0.000000 0.000000 -0.759768 -0.081145 2.564414 3.261417 -0.290600 -21.720690 3.020265 2.758199 24.006594 -8.872985 6.552492 -9.716001 0.000000 0.000000 0.000000 10.535153 -1.913390 1.455530 0.663602 -23.044458 -1.243968 44.569128 -11.520808 -4.034306 0.000000 0.000000 0.000000 0.000000 0.000000 0.000000 16.170825 1.711708 -0.756158 51.633736 -1.283321 -5.092416 10.958907 29.035360 3.541296 0.000000 0.000000 0.000000 0.000000 0.000000 0.000000 
-0.053843 71.672836 2.845723 1.709098 -3.167154 -0.905636 1.644454 0.032958 0.684113 -3.220619 0.353411 -0.006606 3.344098 9.838016 10.919250 0.000000 0.000000 0.000000 -8.679270 0.191171 0.399492 -0.645426 0.333467 5.803467 -2.392669 -9.115782 10.214543 0.000000 0.000000 0.000000 -1.203691 -0.059807 2.306711 4.090830 -0.512585 -21.680119 2.734061 5.460783 24.842459 -7.992513 6.002502 -8.836719 0.000000 0.000000 0.000000 8.960897 -1.350416 1.194948 -0.562394 -23.801606 -1.157321 49.792969 -12.231595 -4.915998 0.000000 0.000000 0.000000 0.000000 0.000000 0.000000 16.551402 1.954701 -0.665698 52.123157 -2.160253 -5.516066 9.182570 29.175040 3.128925 0.000000 0.000000 0.000000 0.000000 0.000000 0.000000 
0.077487 71.855339 2.868937 1.842979 -2.769520 -0.467276 0.977505 0.060941 0.877156 -2.710349 0.305244 -0.767216 2.651903 8.754593 11.130767 0.000000 0.000000 0.000000 -8.799666 0.204557 -0.044653 -0.911726 0.365888 5.604420 -1.825514 -8.224366 11.031861 0.000000 0.000000 0.000000 -0.819270 -0.071728 2.337899 3.640119 -0.354451 -22.340370 2.525582 5.712037 25.137003 -10.026921 7.257032 -10.632760 0.000000 0.000000 0.000000 8.362918 -0.797413 1.004382 0.034538 -24.099948 -1.237798 51.543563 -12.752787 -5.359292 0.000000 0.000000 0.000000 0.000000 0.000000 0.000000 17.835476 1.974081 -0.766292 52.240474 -2.820632 -5.808489 8.281492 28.656798 2.852978 0.000000 0.000000 0.000000 0.000000 0.000000 0.000000 
0.209560 71.932663 2.876940 1.977598 -2.070882 -0.272932 0.729574 0.041869 0.595411 -2.777880 0.304375 0.045702 3.026462 9.248345 10.607037 0.000000 0.000000 0.000000 -9.115808 0.223219 -0.614611 -0.406690 0.302206 5.949984 -2.257123 -8.973795 10.707396 0.000000 0.000000 0.000000 -0.270273 -0.080028 2.145335 2.426939 -0.037557 -22.407197 2.425051 6.086380 25.319130 -8.625429 6.337724 -11.160983 0.000000 0.000000 0.000000 7.184158 -2.156769 1.266725 -1.038781 -22.848671 -1.064160 56.124731 -15.111776 -7.118243 0.000000 0.000000 0.000000 0.000000 0.000000 0.000000 19.309859 1.600201 -1.097050 51.633824 -2.743390 -5.698970 9.099963 27.383302 2.896398 0.000000 0.000000 0.000000 0.000000 0.000000 0.000000 
0.343436 71.993401 2.851013 2.390097 -2.204101 0.398521 -0.001697 -0.005615 -0.061639 -2.977073 0.329768 -0.395039 2.778510 9.046147 11.498532 0.000000 0.000000 0.000000 -9.407465 0.237242 -1.117646 -0.750470 0.337846 5.543220 -2.541601 -9.724020 11.583002 0.000000 0.000000 0.000000 -0.376993 -0.061513 1.727065 1.686472 0.171751 -22.865307 2.410133 6.760631 26.147234 -8.788914 6.391057 -12.491760 0.000000 0.000000 0.000000 6.693866 -1.755987 1.120982 -1.537868 -22.237733 -0.991053 61.448375 -17.756101 -9.446259 0.000000 0.000000 0.000000 0.000000 0.000000 0.000000 19.733876 1.433740 -1.226912 51.793436 -3.071120 -5.855696 9.022944 28.213194 2.976628 0.000000 0.000000 0.000000 0.000000 0.000000 0.000000 
0.464750 72.075432 2.799389 2.787484 -2.162382 0.257594 -0.656620 -0.010255 -0.186568 -3.375220 0.372061 -0.398488 2.734891 9.061505 11.874259 0.000000 0.000000 0.000000 -9.505813 0.240606 -1.240408 -0.833421 0.374222 6.035763 -2.663910 -9.977958 11.687586 0.000000 0.000000 0.000000 -0.517389 -0.071653 2.097493 1.249056 0.288096 -23.017731 2.641952 7.301004 26.900057 -9.221712 6.649180 -12.727394 0.000000 0.000000 0.000000 5.418821 -1.504522 0.949593 -2.012298 -21.312762 -0.915085 63.486014 -20.156721 -11.244607 0.000000 0.000000 0.000000 0.000000 0.000000 0.000000 20.195605 1.958915 -0.981178 51.969835 -2.558847 -5.664353 8.555267 28.387608 2.887357 0.000000 0.000000 0.000000 0.000000 0.000000 0.000000 
0.603018 72.108536 2.750115 3.059224 -1.495605 0.206319 -0.896479 0.016670 0.059509 -3.394796 0.374576 -0.503085 2.107657 8.125183 12.180146 0.000000 0.000000 0.000000 -9.660720 0.246580 -1.505245 -1.483817 0.512832 6.680390 -2.313136 -9.384618 11.976123 0.000000 0.000000 0.000000 -0.703789 -0.077314 2.404091 1.173163 0.315175 -23.242647 2.628895 7.531075 27.241389 -9.580799 6.874282 -12.650906 0.000000 0.000000 0.000000 5.090828 -2.023123 1.072268 -3.415126 -21.338485 -0.797484 65.750641 -20.580725 -12.023121 0.000000 0.000000 0.000000 0.000000 0.000000 0.000000 19.989968 2.519315 -0.655188 52.467166 -2.037207 -5.505654 7.962563 28.341100 2.743276 0.000000 0.000000 0.000000 0.000000 0.000000 0.000000 
0.684313 72.160950 2.729090 2.883330 -1.340862 0.381991 -0.868144 -0.041064 -0.519730 -2.940079 0.320968 0.199806 1.880377 7.601559 11.563881 0.000000 0.000000 0.000000 -9.424997 0.250891 -1.885450 -1.684618 0.562896 6.982581 -2.253605 -9.160275 11.502491 0.000000 0.000000 0.000000 -0.224883 -0.091461 2.408926 0.469817 0.511293 -23.952129 2.601830 7.878213 27.925726 -7.921233 5.825713 -13.498458 0.000000 0.000000 0.000000 4.620687 -2.399828 1.146585 -3.638669 -21.472401 -0.781190 66.923301 -21.382963 -12.804032 0.000000 0.000000 0.000000 0.000000 0.000000 0.000000 21.093634 2.082384 -0.991817 52.326030 -2.056374 -5.496791 8.228652 28.786211 2.854756 0.000000 0.000000 0.000000 0.000000 0.000000 0.000000 
0.736547 72.201462 2.708041 3.165791 -0.935941 0.607807 -1.245374 -0.098791 -1.110979 -2.800353 0.304351 0.310633 1.267700 6.601584 11.570997 0.000000 0.000000 0.000000 -9.571760 0.256718 -2.185718 -1.609346 0.569346 7.331688 -2.382269 -9.340110 11.230529 0.000000 0.000000 0.000000 0.426311 -0.107491 2.341711 -0.647810 0.788038 -24.226492 2.634646 8.426490 27.923320 -7.518310 5.580801 -13.492067 0.000000 0.000000 0.000000 4.140635 -3.189590 1.346413 -3.550476 -22.874218 -0.817026 66.210792 -20.517477 -12.093566 0.000000 0.000000 0.000000 0.000000 0.000000 0.000000 22.351448 1.333441 -1.534268 52.341458 -2.186572 -5.553659 8.135430 28.958963 2.851498 0.000000 0.000000 0.000000 0.000000 0.000000 0.000000 
0.743237 72.190010 2.682102 3.310246 0.147625 0.684607 -1.102934 -0.099451 -1.114382 -2.810010 0.305198 0.336183 0.914073 6.005823 11.518743 0.000000 0.000000 0.000000 -9.651558 0.256513 -2.152158 -1.270461 0.498664 7.090437 -2.564669 -9.646547 11.052503 0.000000 0.000000 0.000000 0.054912 -0.095738 2.314427 -0.457537 0.744925 -24.358071 2.605448 8.260240 28.279714 -7.688011 5.700498 -12.816294 0.000000 0.000000 0.000000 3.470557 -2.764751 1.173396 -4.452881 -25.316048 -0.756871 66.352233 -20.602306 -12.179550 0.000000 0.000000 0.000000 0.000000 0.000000 0.000000 22.156393 1.222804 -1.578584 53.228626 -2.166126 -5.653102 7.784835 29.223940 2.795619 0.000000 0.000000 0.000000 0.000000 0.000000 0.000000 
0.686888 72.213638 2.634536 3.125498 1.043673 0.722221 -0.698771 -0.118465 -1.300203 -2.506141 0.264624 0.862926 0.108679 4.553522 11.137241 0.000000 0.000000 0.000000 -9.396692 0.256931 -2.236794 -0.795351 0.420432 7.138591 -2.817968 -10.075935 10.808367 0.000000 0.000000 0.000000 -0.051522 -0.087234 2.178196 -0.525078 0.759724 -24.288168 2.663493 8.065371 28.490822 -7.354180 5.505966 -12.267816 0.000000 0.000000 0.000000 3.016534 -2.630467 1.100340 -5.022356 -27.021620 -0.698701 67.402310 -21.556521 -13.033408 0.000000 0.000000 0.000000 0.000000 0.000000 0.000000 21.688893 1.625028 -1.304187 53.923343 -2.009556 -5.669553 8.482839 29.881602 3.039505 0.000000 0.000000 0.000000 0.000000 0.000000 0.000000 
0.570260 72.178963 2.580920 2.934610 2.025478 0.505559 -0.162682 -0.145895 -1.592480 -2.485161 0.255753 1.386699 -0.216156 3.912390 10.845035 0.000000 0.000000 0.000000 -9.182482 0.250435 -1.943598 -0.470719 0.374685 7.349243 -3.021037 -10.436369 10.676134 0.000000 0.000000 0.000000 0.080002 -0.086167 2.066076 -0.802586 0.827056 -24.332319 2.983957 8.040899 28.778252 -6.454452 4.949700 -11.802111 0.000000 0.000000 0.000000 3.012433 -3.269130 1.296836 -5.673623 -28.241386 -0.609172 67.112081 -21.870738 -13.157429 0.000000 0.000000 0.000000 0.000000 0.000000 0.000000 21.538098 1.696857 -1.249390 54.327424 -1.994882 -5.712132 8.610724 30.061179 3.091976 0.000000 0.000000 0.000000 0.000000 0.000000 0.000000 
0.448631 72.225975 2.545441 2.684042 2.617069 0.200982 0.541504 -0.147752 -1.630331 -2.352772 0.229252 2.157949 -0.413606 3.545653 10.746559 0.000000 0.000000 0.000000 -8.696227 0.241974 -1.712411 -0.056727 0.303200 7.339395 -3.154672 -10.667939 10.558518 0.000000 0.000000 0.000000 0.502164 -0.109693 2.342408 -1.245949 0.933486 -24.351398 3.121858 7.866307 28.684296 -5.652134 4.444759 -11.708746 0.000000 0.000000 0.000000 2.322324 -3.321089 1.268178 -7.466779 -29.674480 -0.315892 68.060859 -23.967117 -14.745315 0.000000 0.000000 0.000000 0.000000 0.000000 0.000000 21.039000 1.576942 -1.270373 54.597481 -1.892165 -5.699190 8.757703 30.307441 3.157501 0.000000 0.000000 0.000000 0.000000 0.000000 0.000000 
